<?xml version="1.0" encoding="iso-8859-1"?>
<!-- Uploaded to: SVG Repo, www.svgrepo.com, Generator: SVG Repo Mixer Tools -->
<svg height="800px" width="800px" version="1.1" id="Layer_1" xmlns="http://www.w3.org/2000/svg" xmlns:xlink="http://www.w3.org/1999/xlink" 
	 viewBox="0 0 511.999 511.999" xml:space="preserve">
<g>
	<path style="fill:#DD2645;" d="M220.799,367.909c11.11,3.494,22.937,5.376,35.201,5.376c12.265,0,24.091-1.883,35.204-5.376
		l25.583,81.339l12.817,40.745c-23.234,7.299-47.961,11.237-73.606,11.237c-25.646,0-50.368-3.938-73.602-11.237L220.799,367.909z"
		/>
	<path style="fill:#FFCD85;" d="M316.787,449.247l-25.583-81.339c36.461-11.458,65.247-40.242,76.705-76.707l122.085,38.402
		c-23.959,76.24-84.15,136.428-160.388,160.39L316.787,449.247z"/>
	<path style="fill:#DD2645;" d="M489.993,329.603l-122.085-38.402c3.491-11.11,5.373-22.937,5.373-35.203
		c0-12.264-1.883-24.089-5.373-35.203l122.085-38.402c7.299,23.235,11.237,47.96,11.237,73.605
		C501.23,281.643,497.291,306.368,489.993,329.603z"/>
	<path style="fill:#FFCD85;" d="M489.993,182.395l-122.085,38.402c-11.46-36.461-40.244-65.247-76.707-76.705l38.401-122.084
		C405.841,45.967,466.031,106.156,489.993,182.395z"/>
	<path style="fill:#DD2645;" d="M329.602,22.007l-38.401,122.084c-11.112-3.494-22.938-5.374-35.203-5.374
		c-12.264,0-24.089,1.88-35.203,5.374l-25.586-81.339l-12.815-40.745c23.235-7.3,47.96-11.237,73.605-11.237
		S306.368,14.708,329.602,22.007z"/>
	<path style="fill:#FFCD85;" d="M195.21,62.753l25.586,81.339c-36.462,11.46-65.248,40.244-76.706,76.707L22.008,182.397
		c23.959-76.239,84.146-136.431,160.387-160.39L195.21,62.753z"/>
	<path style="fill:#DD2645;" d="M22.008,182.397l122.083,38.402c-3.493,11.113-5.375,22.937-5.375,35.201
		c0,12.266,1.883,24.091,5.375,35.205L22.008,329.605c-7.301-23.235-11.237-47.962-11.237-73.607
		C10.77,230.355,14.707,205.632,22.008,182.397z"/>
	<path style="fill:#FFCD85;" d="M22.008,329.605l122.083-38.402c11.458,36.462,40.243,65.247,76.709,76.705l-38.402,122.084
		C106.156,466.033,45.967,405.845,22.008,329.605z"/>
</g>
<g>
	<path style="fill:#000003;" d="M437.019,74.98C388.666,26.629,324.378,0,255.998,0S123.332,26.629,74.98,74.98
		C26.629,123.334,0,187.619,0,255.998c0,68.381,26.629,132.67,74.98,181.021c48.351,48.352,112.639,74.98,181.018,74.98
		c68.38,0,132.667-26.629,181.02-74.98c48.353-48.352,74.981-112.639,74.981-181.021C512,187.619,485.371,123.334,437.019,74.98z
		 M255.998,362.515c-58.732,0-106.514-47.783-106.514-106.516c0-58.73,47.781-106.511,106.514-106.511
		c58.731,0,106.512,47.781,106.512,106.511C362.512,314.732,314.731,362.515,255.998,362.515z M21.54,255.998
		c0-20.734,2.718-40.846,7.795-60.007l101.705,31.992c-2.02,9.02-3.095,18.393-3.095,28.015c0,9.624,1.075,18.997,3.096,28.019
		l-101.705,31.99C24.258,296.847,21.54,276.735,21.54,255.998z M380.957,227.982l101.707-31.99
		c5.077,19.161,7.796,39.271,7.796,60.007s-2.719,40.846-7.796,60.007l-101.707-31.99c2.022-9.022,3.095-18.395,3.095-28.017
		C384.052,246.377,382.978,237.004,380.957,227.982z M476.199,175.444l-101.721,31.995c-13.005-31.614-38.306-56.915-69.921-69.919
		L336.553,35.8C401.142,59.502,452.498,110.856,476.199,175.444z M316.006,29.335l-31.991,101.708
		c-9.021-2.022-18.394-3.096-28.016-3.096s-18.996,1.075-28.017,3.096L195.99,29.335c19.162-5.076,39.272-7.795,60.009-7.795
		C276.734,21.54,296.845,24.26,316.006,29.335z M175.442,35.8l31.997,101.72c-31.614,13.004-56.917,38.307-69.922,69.921
		L35.799,175.444C59.5,110.858,110.856,59.502,175.442,35.8z M35.8,336.555l101.718-31.995
		c13.005,31.613,38.307,56.917,69.923,69.921l-31.997,101.72C110.857,452.5,59.502,401.144,35.8,336.555z M195.992,482.663
		l31.992-101.706c9.02,2.022,18.393,3.096,28.015,3.096c9.622,0,18.997-1.075,28.019-3.096l19.188,61.003
		c-15.248,3.849-31.081,5.852-47.207,5.852c-5.948,0-10.77,4.822-10.77,10.77c0,5.946,4.822,10.77,10.77,10.77
		c18.35,0,36.362-2.331,53.682-6.809l6.327,20.121c-19.161,5.078-39.273,7.795-60.01,7.795
		C235.262,490.46,215.153,487.742,195.992,482.663z M336.555,476.199l-6.323-20.103c35.27-13.057,66.815-35.398,91.267-65.453
		c3.754-4.615,3.057-11.397-1.556-15.151c-4.615-3.754-11.399-3.059-15.151,1.558c-21.748,26.731-49.733,46.686-81.029,58.474
		l-19.201-61.045c31.614-13.004,56.915-38.307,69.919-69.921l101.72,31.997C452.499,401.142,401.144,452.498,336.555,476.199z"/>
	<path style="fill:#000003;" d="M92.057,136.508c1.999,1.626,4.402,2.415,6.791,2.415c3.129,0,6.233-1.357,8.362-3.973
		c14.793-18.183,32.587-33.345,52.885-45.064c5.151-2.975,6.917-9.561,3.942-14.712c-2.974-5.151-9.562-6.919-14.712-3.942
		c-22.578,13.035-42.37,29.899-58.825,50.125C86.745,125.97,87.442,132.754,92.057,136.508z"/>
	<path style="fill:#000003;" d="M436.884,347.998c-5.133-3.006-11.73-1.283-14.738,3.849l-0.282,0.49
		c-2.903,5.179-1.055,11.712,4.118,14.628c1.666,0.94,3.477,1.384,5.263,1.384c3.763,0,7.422-1.973,9.405-5.478l0.081-0.137
		C443.741,357.603,442.017,351.004,436.884,347.998z"/>
	<path style="fill:#000003;" d="M75.161,163.995c1.696,0.987,3.551,1.454,5.383,1.454c3.723,0,7.351-1.931,9.355-5.376l0.234-0.408
		c2.905-5.181,1.057-11.719-4.118-14.634c-5.175-2.913-11.741-1.071-14.668,4.098l-0.101,0.172
		C68.258,154.442,70.02,161.006,75.161,163.995z"/>
</g>
</svg>